# xmcd
#
# Track frame offsets: 
#        150
#        12911
#        31995
#        53532
#        74582
#        102558
#        106884
#        122399
#        137993
#        149037
#        168527
#        194051
#        215758
#        233094
#        245238
#        263132
#        280509
#        299895
#        318037
#        328863
#
# Disc length: 4566 seconds
#
# Revision: 0
# Processed by: cddbd v1.5.2PL0 Copyright (c) Steve Scherf et al.
# Submitted via: ExactAudioCopy v1.0b1
#
DISCID=4311d414
DTITLE=Peter LeMarc - Buona Sera! Peter LeMarc Livslevande {2010 "Star
DTITLE=kare Än Ord" Box Edition}
DYEAR=1993
DGENRE=Rock
TTITLE0=Här Kommer Din Alskling
TTITLE1=Säg Som Det Ar
TTITLE2=Det Finns Inga Mirakel
TTITLE3=Drivved
TTITLE4=Vänta Dej Mirakel!
TTITLE5=(Prat: Förfrågningar)
TTITLE6=Ett Troget Hjärta
TTITLE7=Mannen I Mitten
TTITLE8=Ett Av Dom Sätt
TTITLE9=Mellan Månen Och Mitt Fönster
TTITLE10=(Jag Ska) Gå Hel Ur Det Här
TTITLE11=Sången Dom Spelar När Filmen Ar Slut
TTITLE12=(Prat: Elvis Hade Rätt)
TTITLE13=You're The Devil In Disguise
TTITLE14=Från En Husvagn I Bohuslän
TTITLE15=Vaggsång Kl.4
TTITLE16=Evelina
TTITLE17=(Prat: I Timmele) (extranummer)
TTITLE18=Håll Om Mej! (extranummer)
TTITLE19=Buona Sera (extranummer)
EXTD=
EXTT0=
EXTT1=
EXTT2=
EXTT3=
EXTT4=
EXTT5=
EXTT6=
EXTT7=
EXTT8=
EXTT9=
EXTT10=
EXTT11=
EXTT12=
EXTT13=
EXTT14=
EXTT15=
EXTT16=
EXTT17=
EXTT18=
EXTT19=
PLAYORDER=
